<svg width="24" height="24" viewBox="0 0 24 24" fill="none" xmlns="http://www.w3.org/2000/svg">
<g id="icon / ionicons / outline / arrow-undo-circle-outline">
<path id="Vector" d="M11.4886 15.3626V13.6133C14.1637 13.6133 15.45 14.2447 16.5783 15.4264C16.8314 15.6912 17.2814 15.4883 17.2481 15.125C16.9927 12.2445 15.6478 9.6364 11.4886 9.6364V7.88702C11.4883 7.81087 11.4657 7.73647 11.4236 7.673C11.3815 7.60954 11.3218 7.55978 11.2518 7.52987C11.1817 7.49996 11.1045 7.49121 11.0295 7.5047C10.9546 7.51819 10.8852 7.55332 10.83 7.60577L6.87094 11.3436C6.83277 11.3795 6.80236 11.4229 6.78157 11.471C6.76078 11.5191 6.75006 11.571 6.75006 11.6234C6.75006 11.6758 6.76078 11.7277 6.78157 11.7758C6.80236 11.824 6.83277 11.8673 6.87094 11.9033L10.8281 15.6425C10.8832 15.6955 10.9526 15.7311 11.0277 15.745C11.1028 15.7589 11.1804 15.7504 11.2507 15.7206C11.3211 15.6908 11.3811 15.641 11.4234 15.5773C11.4657 15.5137 11.4884 15.4391 11.4886 15.3626Z" fill="#0F172A"/>
<path id="Vector (Stroke)" fill-rule="evenodd" clip-rule="evenodd" d="M2.25 12C2.25 6.61704 6.61704 2.25 12 2.25C17.383 2.25 21.75 6.61704 21.75 12C21.75 17.383 17.383 21.75 12 21.75C6.61704 21.75 2.25 17.383 2.25 12ZM12 3.75C7.44546 3.75 3.75 7.44546 3.75 12C3.75 16.5545 7.44546 20.25 12 20.25C16.5545 20.25 20.25 16.5545 20.25 12C20.25 7.44546 16.5545 3.75 12 3.75Z" fill="#0F172A"/>
</g>
</svg>
